<svg xmlns="http://www.w3.org/2000/svg" xmlns:xlink="http://www.w3.org/1999/xlink" width="1080" zoomAndPan="magnify" viewBox="0 0 810 809.999993" height="1080" preserveAspectRatio="xMidYMid meet" version="1.0"><defs><g/><clipPath id="d524f54b0e"><path d="M 123.050781 13.074219 L 686.945312 13.074219 L 686.945312 796.824219 L 123.050781 796.824219 Z M 123.050781 13.074219 " clip-rule="nonzero"/></clipPath></defs><g clip-path="url(#d524f54b0e)"><path fill="#3b82f6" d="M 686.804688 412.03125 C 686.804688 523.472656 687.441406 634.917969 686.066406 746.347656 C 685.875 761.859375 680.117188 782.539062 669.253906 791.484375 C 651.972656 805.703125 635.398438 788.8125 621.042969 777.339844 C 557.492188 726.535156 493.398438 676.375 430.867188 624.335938 C 413.601562 609.96875 403.121094 608.359375 384.8125 623.332031 C 318.820312 677.269531 251.578125 729.726562 183.46875 780.953125 C 172.164062 789.453125 151.660156 795.3125 140.019531 790.710938 C 130.738281 787.050781 123.851562 765.605469 123.792969 752.023438 C 122.832031 525.269531 123.015625 298.507812 123.203125 71.75 C 123.242188 30.101562 139.800781 13.347656 181.238281 13.273438 C 330.421875 13 479.601562 13.015625 628.777344 13.257812 C 670.039062 13.324219 686.445312 30.003906 686.550781 71.890625 C 686.816406 185.273438 686.640625 298.648438 686.640625 412.03125 C 686.695312 412.03125 686.75 412.03125 686.804688 412.03125 " fill-opacity="1" fill-rule="nonzero"/></g><g fill="#ffffff" fill-opacity="1"><g transform="translate(163.987174, 400.292523)"><g><path d="M 140.4375 3.671875 L 132.6875 2.453125 L 123.703125 -0.8125 L 115.53125 -7.75 L 111.859375 -13.875 L 95.53125 -52.671875 L 93.484375 -60.828125 L 89 -68.171875 L 82.0625 -82.0625 L 79.203125 -90.625 L 69 -111.859375 L 66.546875 -120.03125 L 29.796875 -202.484375 L 26.9375 -211.0625 L 22.453125 -217.1875 L 19.1875 -225.359375 L 17.140625 -233.109375 L 13.0625 -239.234375 L 0 -273.9375 L 3.265625 -282.09375 L 9.796875 -284.953125 L 25.3125 -284.953125 L 33.46875 -286.1875 L 56.75 -285.359375 L 66.140625 -281.28125 L 73.078125 -274.34375 L 84.5 -243.3125 L 95.125 -221.6875 L 115.53125 -168.609375 L 122.46875 -154.734375 L 124.109375 -146.96875 L 134.3125 -124.921875 L 138.8125 -124.109375 L 142.890625 -131.453125 L 151.046875 -154.3125 L 155.140625 -161.671875 L 156.765625 -169.015625 L 160.4375 -175.953125 L 162.890625 -184.53125 L 200.859375 -274.34375 L 207.796875 -281.28125 L 216.78125 -286.59375 L 232.296875 -284.953125 L 240.453125 -285.359375 L 248.21875 -286.1875 L 255.5625 -284.953125 L 264.140625 -284.140625 L 271.484375 -282.515625 L 273.53125 -273.9375 L 270.671875 -262.90625 L 262.90625 -248.625 L 260.875 -240.875 L 253.9375 -226.171875 L 249.84375 -218.828125 L 214.328125 -134.71875 L 206.984375 -121.65625 L 204.125 -112.671875 L 188.203125 -75.53125 L 183.71875 -68.171875 L 181.265625 -61.234375 L 177.1875 -52.671875 L 174.734375 -44.5 L 166.96875 -31.4375 L 164.53125 -22.859375 L 159.21875 -11.4375 L 150.234375 0.40625 Z M 140.4375 3.671875 "/></g></g></g><g fill="#ffffff" fill-opacity="1"><g transform="translate(385.541675, 532.130564)"><g><path d="M 109.8125 3.671875 L 93.078125 0.8125 L 77.15625 -4.90625 L 69 -7.34375 L 61.234375 -11.015625 L 55.515625 -17.140625 L 41.234375 -26.125 L 35.921875 -32.25 L 30.203125 -37.5625 L 22.453125 -52.671875 L 20 -60.015625 L 18.375 -68.171875 L 17.140625 -76.34375 L 20.40625 -84.921875 L 27.765625 -88.1875 L 59.203125 -89.8125 L 66.953125 -88.59375 L 74.296875 -89.40625 L 82.46875 -86.140625 L 95.9375 -71.4375 L 102.875 -66.953125 L 109.8125 -63.28125 L 130.640625 -61.234375 L 137.984375 -62.46875 L 150.640625 -63.28125 L 164.53125 -69.40625 L 169.828125 -75.53125 L 173.09375 -85.734375 L 170.65625 -95.9375 L 165.34375 -100.84375 L 150.640625 -107.78125 L 86.546875 -115.125 L 71.859375 -120.03125 L 44.09375 -135.125 L 28.984375 -153.90625 L 22.453125 -168.203125 L 19.59375 -184.53125 L 19.1875 -197.1875 L 20.40625 -217.1875 L 27.765625 -239.640625 L 42.046875 -258.828125 L 61.640625 -272.296875 L 75.53125 -280.46875 L 91.046875 -285.359375 L 98.390625 -286.59375 L 106.546875 -287 L 115.53125 -289.453125 L 146.96875 -288.640625 L 162.890625 -285.359375 L 185.75 -277.609375 L 212.703125 -258.828125 L 221.6875 -246.578125 L 233.109375 -225.359375 L 233.921875 -217.59375 L 235.5625 -209.84375 L 232.296875 -202.90625 L 224.53125 -197.1875 L 217.1875 -198 L 209.03125 -198 L 198 -198.8125 L 178.8125 -197.1875 L 169.828125 -202.484375 L 163.703125 -210.65625 L 156.765625 -216.375 L 149.421875 -221.265625 L 142.078125 -223.3125 L 129 -224.953125 L 115.9375 -224.53125 L 108.59375 -222.90625 L 102.0625 -219.234375 L 95.9375 -214.734375 L 91.046875 -209.4375 L 89 -198.40625 L 90.625 -186.15625 L 96.75 -180.453125 L 111.859375 -173.09375 L 133.5 -168.609375 L 145.34375 -168.609375 L 153.90625 -166.96875 L 162.078125 -166.5625 L 170.234375 -165.34375 L 202.078125 -155.546875 L 209.4375 -151.046875 L 215.96875 -147.78125 L 223.3125 -141.25 L 233.921875 -129 L 238.421875 -122.46875 L 244.546875 -98.796875 L 245.359375 -85.734375 L 242.90625 -65.3125 L 240.453125 -58.375 L 238.015625 -51.03125 L 233.515625 -42.046875 L 229.4375 -36.328125 L 217.59375 -24.09375 L 189.84375 -7.34375 L 182.078125 -3.671875 L 174.734375 -2.859375 L 166.5625 0.40625 L 158.40625 1.640625 L 150.234375 3.671875 L 142.078125 4.484375 Z M 109.8125 3.671875 "/></g></g></g><path stroke-linecap="butt" transform="matrix(0, 0.75, -0.75, 0, 313.205114, 197.030444)" fill="none" stroke-linejoin="miter" d="M 0.00107508 17.997445 L 467.412557 17.997445 " stroke="#3b82f6" stroke-width="36" stroke-opacity="1" stroke-miterlimit="4"/><path stroke-linecap="butt" transform="matrix(0, 0.75, -0.75, 0, 528.042937, 135.9803)" fill="none" stroke-linejoin="miter" d="M 0.000224521 17.999958 L 629.656506 17.999958 " stroke="#3b82f6" stroke-width="36" stroke-opacity="1" stroke-miterlimit="4"/></svg>