<svg xmlns="http://www.w3.org/2000/svg" xmlns:xlink="http://www.w3.org/1999/xlink" width="1350" zoomAndPan="magnify" viewBox="0 0 1012.5 269.999989" height="360" preserveAspectRatio="xMidYMid meet" version="1.0"><defs><g/><clipPath id="49b4e4713e"><path d="M 545.144531 56.164062 L 657.539062 56.164062 L 657.539062 212.5 L 545.144531 212.5 Z M 545.144531 56.164062 " clip-rule="nonzero"/></clipPath></defs><g fill="#ffffff" fill-opacity="1"><g transform="translate(22.504872, 206.468304)"><g><path d="M 71.703125 1.875 L 67.734375 1.25 L 63.15625 -0.421875 L 58.984375 -3.953125 L 57.109375 -7.09375 L 48.78125 -26.890625 L 47.734375 -31.0625 L 45.4375 -34.8125 L 41.890625 -41.890625 L 40.4375 -46.265625 L 35.21875 -57.109375 L 33.96875 -61.28125 L 15.21875 -103.390625 L 13.75 -107.765625 L 11.46875 -110.890625 L 9.796875 -115.0625 L 8.75 -119.015625 L 6.671875 -122.140625 L 0 -139.859375 L 1.671875 -144.03125 L 5 -145.484375 L 12.921875 -145.484375 L 17.09375 -146.109375 L 28.96875 -145.703125 L 33.765625 -143.609375 L 37.3125 -140.0625 L 43.140625 -124.234375 L 48.5625 -113.1875 L 58.984375 -86.078125 L 62.53125 -79 L 63.359375 -75.03125 L 68.578125 -63.78125 L 70.875 -63.359375 L 72.953125 -67.109375 L 77.125 -78.796875 L 79.203125 -82.546875 L 80.046875 -86.296875 L 81.921875 -89.84375 L 83.171875 -94.21875 L 102.546875 -140.0625 L 106.09375 -143.609375 L 110.6875 -146.328125 L 118.59375 -145.484375 L 122.765625 -145.703125 L 126.734375 -146.109375 L 130.484375 -145.484375 L 134.859375 -145.078125 L 138.609375 -144.234375 L 139.65625 -139.859375 L 138.1875 -134.234375 L 134.234375 -126.9375 L 133.1875 -122.984375 L 129.640625 -115.46875 L 127.5625 -111.71875 L 109.421875 -68.78125 L 105.671875 -62.109375 L 104.21875 -57.53125 L 96.09375 -38.5625 L 93.796875 -34.8125 L 92.546875 -31.265625 L 90.46875 -26.890625 L 89.21875 -22.71875 L 85.25 -16.046875 L 84 -11.671875 L 81.296875 -5.84375 L 76.703125 0.203125 Z M 71.703125 1.875 "/></g></g></g><g fill="#ffffff" fill-opacity="1"><g transform="translate(157.780758, 206.468304)"><g><path d="M 10 -6.046875 L 10 -22.09375 L 10.421875 -26.046875 L 12.921875 -30.015625 L 26.6875 -34.390625 L 28.765625 -38.984375 L 29.1875 -47.109375 L 28.34375 -56.0625 L 29.390625 -60.234375 L 28.5625 -68.375 L 28.96875 -72.53125 L 29.1875 -81.078125 L 28.5625 -85.875 L 28.34375 -89.421875 L 28.96875 -107.140625 L 26.265625 -110.890625 L 13.546875 -115.265625 L 11.46875 -119.21875 L 11.46875 -123.1875 L 11.046875 -127.359375 L 11.046875 -131.9375 L 11.46875 -135.484375 L 11.46875 -139.4375 L 13.75 -143.828125 L 18.34375 -145.90625 L 26.46875 -145.484375 L 30.4375 -145.703125 L 43.140625 -145.484375 L 47.734375 -145.90625 L 74.203125 -145.703125 L 80.875 -143.828125 L 82.546875 -139.65625 L 82.953125 -135.484375 L 82.546875 -131.734375 L 82.546875 -119.4375 L 80.25 -115.46875 L 76.28125 -113.1875 L 71.703125 -112.96875 L 67.734375 -110.6875 L 65.453125 -106.921875 L 65.453125 -98.171875 L 65.859375 -93.796875 L 65.453125 -89.625 L 65.859375 -85.671875 L 65.453125 -79.203125 L 65.859375 -72.953125 L 65.03125 -64.203125 L 65.859375 -55.859375 L 65.453125 -38.765625 L 67.734375 -34.59375 L 81.703125 -30.21875 L 84.625 -26.6875 L 84 -13.96875 L 84.421875 -10.21875 L 84.421875 -5.625 L 82.125 -1.875 L 78.15625 0.203125 L 16.265625 -0.203125 L 12.09375 -1.671875 Z M 10 -6.046875 "/></g></g></g><g fill="#ffffff" fill-opacity="1"><g transform="translate(247.200314, 206.468304)"><g><path d="M 15.625 -6.46875 L 16.046875 -14.375 L 15.421875 -31.0625 L 15.84375 -35.21875 L 15.421875 -51.90625 L 16.046875 -60.03125 L 15.421875 -64.40625 L 16.046875 -68.375 L 15.421875 -77.328125 L 16.046875 -85.25 L 15.21875 -101.921875 L 15.84375 -106.09375 L 15.21875 -110.265625 L 15.84375 -114.84375 L 15.421875 -122.765625 L 15.625 -126.9375 L 15.21875 -131.109375 L 15.21875 -139.65625 L 18.34375 -143.609375 L 22.09375 -145.90625 L 26.46875 -145.703125 L 30.21875 -145.90625 L 34.390625 -145.484375 L 47.734375 -145.90625 L 51.90625 -145.484375 L 81.5 -145.28125 L 90.046875 -143.609375 L 101.515625 -139.859375 L 105.671875 -137.78125 L 113.390625 -132.984375 L 119.21875 -127.359375 L 122.765625 -124.640625 L 128.1875 -118.1875 L 129.859375 -114.640625 L 134.65625 -107.546875 L 137.78125 -99.21875 L 138.8125 -95.46875 L 139.234375 -91.09375 L 142.359375 -79.203125 L 141.53125 -65.859375 L 141.734375 -62.328125 L 140.6875 -57.953125 L 140.0625 -53.5625 L 138.609375 -49.8125 L 137.78125 -45.640625 L 135.6875 -41.6875 L 134.65625 -37.734375 L 128.1875 -27.3125 L 119.84375 -17.71875 L 102.140625 -5.84375 L 90.046875 -2.078125 L 76.703125 -0.203125 L 39.1875 0 L 34.8125 0.625 L 30.640625 0.625 L 26.265625 0 L 21.46875 0 L 18.140625 -1.875 Z M 59.828125 -33.5625 L 77.125 -34.390625 L 84.625 -36.46875 L 88.796875 -38.5625 L 92.125 -40.640625 L 94.625 -43.984375 L 97.34375 -46.890625 L 100.046875 -50.65625 L 103.171875 -58.15625 L 104.421875 -62.109375 L 105.46875 -72.328125 L 104.84375 -78.796875 L 102.34375 -91.09375 L 99.640625 -94.421875 L 97.34375 -98.375 L 92.125 -104.21875 L 85.046875 -108.796875 L 76.703125 -111.3125 L 70.453125 -111.71875 L 66.078125 -111.515625 L 61.703125 -111.71875 L 55.65625 -109.421875 L 53.15625 -105.671875 L 53.15625 -52.109375 L 52.53125 -47.9375 L 53.359375 -44.1875 L 52.9375 -40.015625 L 54.8125 -35.4375 Z M 59.828125 -33.5625 "/></g></g></g><g fill="#ffffff" fill-opacity="1"><g transform="translate(393.523396, 206.468304)"><g><path d="M 56.0625 1.875 L 47.53125 0.421875 L 39.390625 -2.5 L 35.21875 -3.75 L 31.265625 -5.625 L 28.34375 -8.75 L 21.046875 -13.34375 L 18.34375 -16.46875 L 15.421875 -19.171875 L 11.46875 -26.890625 L 10.21875 -30.640625 L 9.375 -34.8125 L 8.75 -38.984375 L 10.421875 -43.359375 L 14.171875 -45.015625 L 30.21875 -45.859375 L 34.1875 -45.234375 L 37.9375 -45.640625 L 42.109375 -43.984375 L 48.984375 -36.46875 L 52.53125 -34.1875 L 56.0625 -32.3125 L 66.703125 -31.265625 L 70.453125 -31.890625 L 76.90625 -32.3125 L 84 -35.4375 L 86.703125 -38.5625 L 88.375 -43.765625 L 87.125 -48.984375 L 84.421875 -51.484375 L 76.90625 -55.03125 L 44.1875 -58.78125 L 36.6875 -61.28125 L 22.515625 -69 L 14.796875 -78.578125 L 11.46875 -85.875 L 10 -94.21875 L 9.796875 -100.671875 L 10.421875 -110.890625 L 14.171875 -122.359375 L 21.46875 -132.15625 L 31.46875 -139.03125 L 38.5625 -143.203125 L 46.484375 -145.703125 L 50.234375 -146.328125 L 54.40625 -146.53125 L 58.984375 -147.78125 L 75.03125 -147.359375 L 83.171875 -145.703125 L 94.84375 -141.734375 L 108.59375 -132.15625 L 113.1875 -125.890625 L 119.015625 -115.0625 L 119.4375 -111.09375 L 120.265625 -107.140625 L 118.59375 -103.59375 L 114.640625 -100.671875 L 110.890625 -101.09375 L 106.71875 -101.09375 L 101.09375 -101.515625 L 91.296875 -100.671875 L 86.703125 -103.390625 L 83.578125 -107.546875 L 80.046875 -110.46875 L 76.28125 -112.96875 L 72.53125 -114.015625 L 65.859375 -114.84375 L 59.203125 -114.640625 L 55.4375 -113.8125 L 52.109375 -111.9375 L 48.984375 -109.640625 L 46.484375 -106.921875 L 45.4375 -101.296875 L 46.265625 -95.046875 L 49.40625 -92.125 L 57.109375 -88.375 L 68.15625 -86.078125 L 74.203125 -86.078125 L 78.578125 -85.25 L 82.75 -85.046875 L 86.921875 -84.421875 L 103.171875 -79.421875 L 106.921875 -77.125 L 110.265625 -75.453125 L 114.015625 -72.125 L 119.4375 -65.859375 L 121.734375 -62.53125 L 124.859375 -50.4375 L 125.265625 -43.765625 L 124.015625 -33.34375 L 122.765625 -29.8125 L 121.515625 -26.046875 L 119.21875 -21.46875 L 117.140625 -18.546875 L 111.09375 -12.296875 L 96.921875 -3.75 L 92.96875 -1.875 L 89.21875 -1.453125 L 85.046875 0.203125 L 80.875 0.828125 L 76.703125 1.875 L 72.53125 2.296875 Z M 56.0625 1.875 "/></g></g></g><g fill="#ffffff" fill-opacity="1"><g transform="translate(521.317402, 206.468304)"><g/></g></g><g fill="#ffffff" fill-opacity="1"><g transform="translate(572.592821, 206.468304)"><g/></g></g><g fill="#ffffff" fill-opacity="1"><g transform="translate(623.86824, 206.468304)"><g/></g></g><g fill="#ffffff" fill-opacity="1"><g transform="translate(675.176686, 206.468304)"><g><path d="M 10 -6.046875 L 10 -22.09375 L 10.421875 -26.046875 L 12.921875 -30.015625 L 26.6875 -34.390625 L 28.765625 -38.984375 L 29.1875 -47.109375 L 28.34375 -56.0625 L 29.390625 -60.234375 L 28.5625 -68.375 L 28.96875 -72.53125 L 29.1875 -81.078125 L 28.5625 -85.875 L 28.34375 -89.421875 L 28.96875 -107.140625 L 26.265625 -110.890625 L 13.546875 -115.265625 L 11.46875 -119.21875 L 11.46875 -123.1875 L 11.046875 -127.359375 L 11.046875 -131.9375 L 11.46875 -135.484375 L 11.46875 -139.4375 L 13.75 -143.828125 L 18.34375 -145.90625 L 26.46875 -145.484375 L 30.4375 -145.703125 L 43.140625 -145.484375 L 47.734375 -145.90625 L 74.203125 -145.703125 L 80.875 -143.828125 L 82.546875 -139.65625 L 82.953125 -135.484375 L 82.546875 -131.734375 L 82.546875 -119.4375 L 80.25 -115.46875 L 76.28125 -113.1875 L 71.703125 -112.96875 L 67.734375 -110.6875 L 65.453125 -106.921875 L 65.453125 -98.171875 L 65.859375 -93.796875 L 65.453125 -89.625 L 65.859375 -85.671875 L 65.453125 -79.203125 L 65.859375 -72.953125 L 65.03125 -64.203125 L 65.859375 -55.859375 L 65.453125 -38.765625 L 67.734375 -34.59375 L 81.703125 -30.21875 L 84.625 -26.6875 L 84 -13.96875 L 84.421875 -10.21875 L 84.421875 -5.625 L 82.125 -1.875 L 78.15625 0.203125 L 16.265625 -0.203125 L 12.09375 -1.671875 Z M 10 -6.046875 "/></g></g></g><g fill="#ffffff" fill-opacity="1"><g transform="translate(764.596242, 206.468304)"><g><path d="M 15.21875 -5.84375 L 15.625 -10 L 15.21875 -14.796875 L 15.84375 -57.953125 L 15 -64.40625 L 15.421875 -69 L 15.421875 -73.15625 L 15.84375 -77.125 L 15.21875 -80.875 L 15.421875 -110.46875 L 15.84375 -114.4375 L 15 -139.4375 L 17.296875 -143.40625 L 21.265625 -145.484375 L 71.078125 -145.484375 L 75.03125 -145.90625 L 79 -145.484375 L 83.375 -145.703125 L 87.75 -145.484375 L 95.25 -146.109375 L 100.265625 -145.484375 L 104.015625 -143.609375 L 106.09375 -139.65625 L 106.515625 -135.28125 L 106.09375 -130.90625 L 106.515625 -126.9375 L 106.09375 -122.765625 L 106.09375 -118.8125 L 104.640625 -114.640625 L 100.671875 -112.765625 L 96.5 -112.140625 L 87.953125 -112.5625 L 83.796875 -112.140625 L 73.578125 -112.765625 L 67.53125 -112.34375 L 61.484375 -112.5625 L 55.4375 -110.46875 L 53.359375 -106.296875 L 53.5625 -102.765625 L 52.9375 -98.375 L 52.9375 -86.078125 L 55.234375 -82.328125 L 60.03125 -80.671875 L 91.71875 -80.671875 L 97.96875 -78.578125 L 100.046875 -74.203125 L 100.671875 -70.25 L 100.265625 -57.734375 L 100.46875 -53.15625 L 98.171875 -48.984375 L 94.21875 -47.109375 L 61.703125 -46.890625 L 55.4375 -44.8125 L 53.5625 -40.4375 L 53.15625 -36.0625 L 53.359375 -32.09375 L 53.15625 -28.140625 L 53.78125 -19.171875 L 53.359375 -14.796875 L 53.5625 -8.34375 L 50.859375 -1.875 L 46.6875 0.203125 L 23.765625 0.421875 L 17.296875 -1.875 Z M 15.21875 -5.84375 "/></g></g></g><g fill="#ffffff" fill-opacity="1"><g transform="translate(872.983655, 206.468304)"><g><path d="M 40.015625 -6.46875 L 39.8125 -22.71875 L 40.234375 -26.890625 L 39.609375 -39.609375 L 39.8125 -43.984375 L 39.609375 -48.15625 L 40.4375 -54.40625 L 39.8125 -60.453125 L 39.8125 -68.78125 L 40.234375 -72.953125 L 39.8125 -76.90625 L 40.4375 -83.375 L 39.8125 -106.296875 L 37.734375 -110.265625 L 33.96875 -112.5625 L 15.421875 -112.765625 L 10 -112.140625 L 5.84375 -114.21875 L 3.546875 -118.8125 L 3.75 -139.65625 L 5.84375 -143.828125 L 10.421875 -145.90625 L 72.53125 -145.484375 L 77.328125 -146.109375 L 81.5 -146.109375 L 85.671875 -145.703125 L 89.84375 -145.703125 L 94.421875 -146.328125 L 98.375 -146.328125 L 101.71875 -145.90625 L 106.71875 -146.328125 L 110.890625 -144.234375 L 112.96875 -140.0625 L 112.5625 -122.984375 L 112.96875 -118.59375 L 110.890625 -114.4375 L 106.09375 -112.5625 L 94.625 -112.765625 L 90.875 -112.34375 L 86.703125 -112.5625 L 83.171875 -112.34375 L 78.578125 -110.46875 L 76.90625 -106.71875 L 77.328125 -102.140625 L 76.703125 -97.96875 L 77.53125 -56.484375 L 76.90625 -47.734375 L 77.328125 -43.984375 L 76.90625 -31.265625 L 76.28125 -26.890625 L 76.90625 -23.34375 L 77.125 -15 L 76.703125 -10.21875 L 76.90625 -6.25 L 75.25 -2.078125 L 71.078125 -0.421875 L 58.15625 -0.421875 L 54.1875 0 L 50.03125 -0.421875 L 46.0625 0 L 41.6875 -2.078125 Z M 40.015625 -6.46875 "/></g></g></g><g clip-path="url(#49b4e4713e)"><path fill="#ffffff" d="M 657.582031 135.734375 C 657.582031 157.960938 657.707031 180.1875 657.433594 202.414062 C 657.394531 205.507812 656.246094 209.628906 654.078125 211.414062 C 650.632812 214.25 647.328125 210.882812 644.464844 208.59375 C 631.789062 198.460938 619.007812 188.457031 606.535156 178.078125 C 603.089844 175.214844 601 174.890625 597.347656 177.878906 C 584.1875 188.636719 570.777344 199.097656 557.191406 209.316406 C 554.9375 211.007812 550.847656 212.179688 548.527344 211.261719 C 546.675781 210.53125 545.304688 206.253906 545.289062 203.542969 C 545.097656 158.320312 545.136719 113.09375 545.171875 67.867188 C 545.179688 59.5625 548.484375 56.21875 556.75 56.207031 C 586.5 56.152344 616.253906 56.15625 646.007812 56.203125 C 654.234375 56.214844 657.507812 59.542969 657.527344 67.898438 C 657.582031 90.511719 657.546875 113.121094 657.546875 135.734375 C 657.558594 135.734375 657.570312 135.734375 657.582031 135.734375 " fill-opacity="1" fill-rule="nonzero"/></g><path stroke-linecap="round" transform="matrix(0, 0.74963, -0.74963, 0, 567.094402, 141.497785)" fill="none" stroke-linejoin="miter" d="M 7.501448 7.499363 L 52.351713 7.499363 " stroke="#000000" stroke-width="15" stroke-opacity="1" stroke-miterlimit="4"/><path stroke-linecap="round" transform="matrix(0.0038335, 0.74962, -0.74962, 0.0038335, 646.782278, 70.313843)" fill="none" stroke-linejoin="miter" d="M 7.500124 7.501841 L 52.350973 7.501922 " stroke="#000000" stroke-width="15" stroke-opacity="1" stroke-miterlimit="4"/><path stroke-linecap="round" transform="matrix(0, 0.74963, -0.74963, 0, 646.89543, 121.208132)" fill="none" stroke-linejoin="miter" d="M 7.502235 7.499693 L 11.603218 7.499693 " stroke="#000000" stroke-width="15" stroke-opacity="1" stroke-miterlimit="4"/><path stroke-linecap="round" transform="matrix(0, 0.74963, -0.74963, 0, 567.092459, 121.208132)" fill="none" stroke-linejoin="miter" d="M 7.502235 7.501981 L 11.603218 7.501981 " stroke="#000000" stroke-width="15" stroke-opacity="1" stroke-miterlimit="4"/></svg>